<svg xmlns="http://www.w3.org/2000/svg" version="1.1" xmlns:xlink="http://www.w3.org/1999/xlink" xmlns:svgjs="http://svgjs.dev/svgjs" width="1000" height="1000" viewBox="0 0 1000 1000"><rect width="1000" height="1000" fill="#000000"></rect><g transform="matrix(0.7,0,0,0.7,149.45012746285164,86.98469635627532)"><svg viewBox="0 0 209 247" data-background-color="#010c80" preserveAspectRatio="xMidYMid meet" height="1181" width="1000" xmlns="http://www.w3.org/2000/svg" xmlns:xlink="http://www.w3.org/1999/xlink"><g id="tight-bounds" transform="matrix(1,0,0,1,0.16417622894857686,-0.09999999999999432)"><svg viewBox="0 0 208.67164754210285 247.2" height="247.2" width="208.67164754210285"><g><svg viewBox="0 0 395.52 468.5473333423163" height="247.2" width="208.67164754210285"><g transform="matrix(1,0,0,1,0,371.65634421021184)"><svg viewBox="0 0 395.52 96.89098913210441" height="96.89098913210441" width="395.52"><g id="textblocktransform"><svg viewBox="0 0 395.52 96.89098913210441" height="96.89098913210441" width="395.52" id="textblock"><g><svg viewBox="0 0 395.52 52.25836973894512" height="52.25836973894512" width="395.52"><g transform="matrix(1,0,0,1,0,0)"><svg width="395.52" viewBox="1 -36.2 281.53 37.2" height="52.25836973894512" data-palette-color="#f8fafc"><path d="M5.8-11.55L5.8-17.75 5.95-26.4Q5.95-27.75 5.85-30.95L5.85-30.95Q5.8-32.4 4.6-33.2 3.4-34 1.8-34.05L1.8-34.05Q1-34.05 1-34.95L1-34.95Q1-35.65 2.4-35.65L2.4-35.65 3.75-35.55 15.95-35.3 25.95-35.5Q26.9-35.5 26.9-34.35L26.9-34.35Q26.9-34.05 26.6-32.38 26.3-30.7 26.3-29.75L26.3-29.75Q26.3-28.15 25.53-28.15 24.75-28.15 24.75-29.35 24.75-30.55 23.9-31.65 23.05-32.75 21.8-32.8L21.8-32.8Q17.3-33.15 14.9-33.15L14.9-33.15 13.6-33.15Q11-33.15 10.6-32.8L10.6-32.8Q9.85-32.15 9.85-21.75L9.85-21.75Q9.85-19.25 10.8-19.2L10.8-19.2 15.7-19.2Q18.7-19.2 19.7-19.4L19.7-19.4Q22.3-19.9 22.65-22L22.65-22Q22.8-22.85 23.3-22.85 23.8-22.85 23.9-22.7 24-22.55 24-22.05L24-22.05 23.6-16.8 23.75-13.75Q23.75-12.5 23.4-12.5L23.4-12.5Q22.65-12.5 22.3-13.7L22.3-13.7Q21.6-15.8 21.05-16.15L21.05-16.15Q20-16.85 17.4-16.85L17.4-16.85 13.8-16.85 12.2-16.9 11.85-16.9Q9.8-16.9 9.8-15.95L9.8-15.95 9.7-8.75 9.7-6.75Q9.7-3.15 10.93-2.78 12.15-2.4 13.05-2.4L13.05-2.4Q20.55-2.4 23.9-3.6L23.9-3.6Q26.85-4.7 27.5-5.9L27.5-5.9Q28.1-7.15 28.6-7.15L28.6-7.15Q29.2-7.15 29.2-6.3L29.2-6.3Q29.2-4.15 27.05-1.95 24.9 0.25 23.3 0.25L23.3 0.25Q19.7 0.25 15.18 0 10.65-0.25 9.55-0.25L9.55-0.25 2.75 0.2Q1.7 0.2 1.7-0.3L1.7-0.3 1.7-0.9Q1.7-1.2 2.2-1.3L2.2-1.3Q2.75-1.35 3.9-1.9 5.05-2.45 5.43-4.2 5.8-5.95 5.8-11.55L5.8-11.55ZM41.1 0.05L36.95 0 32.65 0.2Q31.2 0.2 31.2-0.4L31.2-0.4Q31.2-1.1 31.95-1.35L31.95-1.35Q33.55-1.95 34.75-4.03 35.95-6.1 40.77-16.57 45.6-27.05 49.35-35.05L49.35-35.05Q49.7-35.8 49.97-36 50.25-36.2 50.77-36.2 51.3-36.2 51.45-36 51.6-35.8 52-34.65 52.4-33.5 52.62-32.9 52.85-32.3 53.35-30.95 53.85-29.6 54.95-26.9 56.05-24.2 59.97-15.08 63.9-5.95 64.5-4.73 65.1-3.5 66.15-2.63 67.2-1.75 67.97-1.68 68.75-1.6 69.27-1.43 69.8-1.25 69.8-0.65L69.8-0.65Q69.8 0.1 68.45 0.1L68.45 0.1 63.95-0.2 59.3 0Q57.75 0 57.32-0.13 56.9-0.25 56.9-0.65 56.9-1.05 57.3-1.28 57.7-1.5 58.15-1.58 58.6-1.65 59-2.02 59.4-2.4 59.4-3.28 59.4-4.15 58.15-7.55 56.9-10.95 56.05-12.55L56.05-12.55Q55.6-13.4 54-13.4L54-13.4 47.95-13.3 45.3-13.3Q43.05-13.3 42.47-13.05 41.9-12.8 41.52-12 41.15-11.2 40.45-9.78 39.75-8.35 39.5-7.8 39.25-7.25 38.9-6.4L38.9-6.4Q38.25-4.9 38.25-3.9 38.25-2.9 38.82-2.3 39.4-1.7 40.1-1.6L40.1-1.6Q41.95-1.45 41.95-0.65L41.95-0.65Q41.95-0.3 41.8-0.13 41.65 0.05 41.1 0.05L41.1 0.05ZM49-28.5Q48.55-28.5 46.15-22.98 43.75-17.45 43.75-16.85 43.75-16.25 44.2-16.1 44.65-15.95 46.3-15.95L46.3-15.95 47.85-15.95 52.6-16Q54.55-16 54.55-16.73 54.55-17.45 52.1-22.98 49.65-28.5 49-28.5L49-28.5ZM76.64-5.65L76.7-21.4 76.64-29.85Q76.64-31.7 75.89-32.68 75.14-33.65 74.22-33.77 73.3-33.9 72.55-34.1 71.8-34.3 71.8-34.8L71.8-34.8Q71.8-35.6 73.25-35.6L73.25-35.6 81.55-35.6 86.55-35.75Q91.05-35.75 94.25-33.48 97.45-31.2 97.45-27.35L97.45-27.35Q97.45-24.8 96.47-22.88 95.5-20.95 94.32-20.1 93.15-19.25 92.17-18.63 91.2-18 91.2-17.8L91.2-17.8Q91.2-17.2 95.4-11.33 99.59-5.45 101.15-3.8L101.15-3.8Q103.05-1.45 105.75-1.45L105.75-1.45Q106.44-1.45 106.44-0.85L106.44-0.85Q106.44-0.1 105.84 0.15 105.25 0.4 102.82 0.4 100.4 0.4 98.45-0.75L98.45-0.75Q95.75-2.3 89.5-12.75L89.5-12.75Q87.09-16.65 85.8-16.65L85.8-16.65 81.7-16.65Q81.09-16.65 80.97-16.15 80.84-15.65 80.84-13.2L80.84-13.2Q80.84-13.2 80.84-9.15L80.84-9.15 80.9-6.5Q80.9-6.5 80.9-6.05L80.9-6.05Q80.9-4 81.84-2.88 82.8-1.75 83.97-1.58 85.15-1.4 86.09-1.18 87.05-0.95 87.05-0.45L87.05-0.45Q87.05 0.35 86.15 0.35L86.15 0.35Q86.15 0.35 79 0L79 0 73.5 0.2Q72.45 0.2 72.45-0.6L72.45-0.6Q72.45-1.45 74.55-1.7L74.55-1.7Q75.34-1.8 76-2.8 76.64-3.8 76.64-5.65L76.64-5.65ZM80.84-28.2L80.84-26.8Q80.84-21.65 80.9-20.43 80.95-19.2 81.25-19L81.25-19Q82-18.55 83.4-18.55L83.4-18.55 85.34-18.55Q89.59-18.55 91.42-20.5 93.25-22.45 93.25-25.53 93.25-28.6 90.82-31.15 88.4-33.7 83.5-33.7L83.5-33.7Q81.65-33.7 81.25-32.73 80.84-31.75 80.84-28.2L80.84-28.2ZM112.54-5.65L112.59-21.4 112.54-29.85Q112.54-31.7 111.79-32.68 111.04-33.65 110.12-33.77 109.19-33.9 108.44-34.1 107.69-34.3 107.69-34.8L107.69-34.8Q107.69-35.6 109.14-35.6L109.14-35.6 117.44-35.6 122.44-35.75Q126.94-35.75 130.14-33.48 133.34-31.2 133.34-27.35L133.34-27.35Q133.34-24.8 132.37-22.88 131.39-20.95 130.22-20.1 129.04-19.25 128.07-18.63 127.09-18 127.09-17.8L127.09-17.8Q127.09-17.2 131.29-11.33 135.49-5.45 137.04-3.8L137.04-3.8Q138.94-1.45 141.64-1.45L141.64-1.45Q142.34-1.45 142.34-0.85L142.34-0.85Q142.34-0.1 141.74 0.15 141.14 0.4 138.72 0.4 136.29 0.4 134.34-0.75L134.34-0.75Q131.64-2.3 125.39-12.75L125.39-12.75Q122.99-16.65 121.69-16.65L121.69-16.65 117.59-16.65Q116.99-16.65 116.87-16.15 116.74-15.65 116.74-13.2L116.74-13.2Q116.74-13.2 116.74-9.15L116.74-9.15 116.79-6.5Q116.79-6.5 116.79-6.05L116.79-6.05Q116.79-4 117.74-2.88 118.69-1.75 119.87-1.58 121.04-1.4 121.99-1.18 122.94-0.95 122.94-0.45L122.94-0.45Q122.94 0.35 122.04 0.35L122.04 0.35Q122.04 0.35 114.89 0L114.89 0 109.39 0.2Q108.34 0.2 108.34-0.6L108.34-0.6Q108.34-1.45 110.44-1.7L110.44-1.7Q111.24-1.8 111.89-2.8 112.54-3.8 112.54-5.65L112.54-5.65ZM116.74-28.2L116.74-26.8Q116.74-21.65 116.79-20.43 116.84-19.2 117.14-19L117.14-19Q117.89-18.55 119.29-18.55L119.29-18.55 121.24-18.55Q125.49-18.55 127.32-20.5 129.14-22.45 129.14-25.53 129.14-28.6 126.72-31.15 124.29-33.7 119.39-33.7L119.39-33.7Q117.54-33.7 117.14-32.73 116.74-31.75 116.74-28.2L116.74-28.2ZM143.34-16.25Q143.34-21.65 145.44-26 147.54-30.35 151.92-33.02 156.29-35.7 162.29-35.7L162.29-35.7Q165.34-35.7 168.44-34.8 171.54-33.9 173.39-33L173.39-33 175.24-32.05Q175.39-32.05 175.74-32.3 176.09-32.55 176.32-32.55 176.54-32.55 176.79-32.35 177.04-32.15 177.07-31.23 177.09-30.3 177.27-28.68 177.44-27.05 177.59-26 177.74-24.95 177.74-24.75L177.74-24.75Q177.74-23.85 177.14-23.85L177.14-23.85Q176.69-23.85 176.29-24.55L176.29-24.55Q171.44-33.65 162.29-33.65L162.29-33.65Q156.04-33.65 152.04-29.65 148.04-25.65 148.04-19.2L148.04-19.2Q148.04-12 151.74-6.9L151.74-6.9Q153.64-4.3 156.94-2.8 160.24-1.3 164.64-1.3L164.64-1.3Q171.84-1.3 176.74-8.8L176.74-8.8Q176.94-9.15 177.49-9.15L177.49-9.15Q177.94-9.15 177.94-8.53 177.94-7.9 177.77-6.98 177.59-6.05 177.34-4.93 177.09-3.8 177.04-3.55L177.04-3.55Q176.94-3 176.24-2.65L176.24-2.65Q173.54-1.35 172.04-0.7L172.04-0.7Q168.04 1 163.52 1 158.99 1 155.49-0.05 151.99-1.1 149.77-2.8 147.54-4.5 146.04-6.8L146.04-6.8Q143.34-10.85 143.34-16.25ZM190.19 0.05L186.04 0 181.74 0.2Q180.29 0.2 180.29-0.4L180.29-0.4Q180.29-1.1 181.04-1.35L181.04-1.35Q182.64-1.95 183.84-4.03 185.04-6.1 189.86-16.57 194.69-27.05 198.44-35.05L198.44-35.05Q198.79-35.8 199.06-36 199.34-36.2 199.86-36.2 200.39-36.2 200.54-36 200.69-35.8 201.09-34.65 201.49-33.5 201.71-32.9 201.94-32.3 202.44-30.95 202.94-29.6 204.04-26.9 205.14-24.2 209.06-15.08 212.99-5.95 213.59-4.73 214.19-3.5 215.24-2.63 216.29-1.75 217.06-1.68 217.84-1.6 218.36-1.43 218.89-1.25 218.89-0.65L218.89-0.65Q218.89 0.1 217.54 0.1L217.54 0.1 213.04-0.2 208.39 0Q206.84 0 206.41-0.13 205.99-0.25 205.99-0.65 205.99-1.05 206.39-1.28 206.79-1.5 207.24-1.58 207.69-1.65 208.09-2.02 208.49-2.4 208.49-3.28 208.49-4.15 207.24-7.55 205.99-10.95 205.14-12.55L205.14-12.55Q204.69-13.4 203.09-13.4L203.09-13.4 197.04-13.3 194.39-13.3Q192.14-13.3 191.56-13.05 190.99-12.8 190.61-12 190.24-11.2 189.54-9.78 188.84-8.35 188.59-7.8 188.34-7.25 187.99-6.4L187.99-6.4Q187.34-4.9 187.34-3.9 187.34-2.9 187.91-2.3 188.49-1.7 189.19-1.6L189.19-1.6Q191.04-1.45 191.04-0.65L191.04-0.65Q191.04-0.3 190.89-0.13 190.74 0.05 190.19 0.05L190.19 0.05ZM198.09-28.5Q197.64-28.5 195.24-22.98 192.84-17.45 192.84-16.85 192.84-16.25 193.29-16.1 193.74-15.95 195.39-15.95L195.39-15.95 196.94-15.95 201.69-16Q203.64-16 203.64-16.73 203.64-17.45 201.19-22.98 198.74-28.5 198.09-28.5L198.09-28.5ZM225.74-5.65L225.79-21.4 225.74-29.85Q225.74-31.7 224.99-32.68 224.24-33.65 223.31-33.77 222.39-33.9 221.64-34.1 220.89-34.3 220.89-34.8L220.89-34.8Q220.89-35.6 222.34-35.6L222.34-35.6 230.64-35.6 235.64-35.75Q240.14-35.75 243.34-33.48 246.54-31.2 246.54-27.35L246.54-27.35Q246.54-24.8 245.56-22.88 244.59-20.95 243.41-20.1 242.24-19.25 241.26-18.63 240.29-18 240.29-17.8L240.29-17.8Q240.29-17.2 244.49-11.33 248.69-5.45 250.24-3.8L250.24-3.8Q252.14-1.45 254.84-1.45L254.84-1.45Q255.54-1.45 255.54-0.85L255.54-0.85Q255.54-0.1 254.94 0.15 254.34 0.4 251.91 0.4 249.49 0.4 247.54-0.75L247.54-0.75Q244.84-2.3 238.59-12.75L238.59-12.75Q236.19-16.65 234.89-16.65L234.89-16.65 230.79-16.65Q230.19-16.65 230.06-16.15 229.94-15.65 229.94-13.2L229.94-13.2Q229.94-13.2 229.94-9.15L229.94-9.15 229.99-6.5Q229.99-6.5 229.99-6.05L229.99-6.05Q229.99-4 230.94-2.88 231.89-1.75 233.06-1.58 234.24-1.4 235.19-1.18 236.14-0.95 236.14-0.45L236.14-0.45Q236.14 0.35 235.24 0.35L235.24 0.35Q235.24 0.35 228.09 0L228.09 0 222.59 0.2Q221.54 0.2 221.54-0.6L221.54-0.6Q221.54-1.45 223.64-1.7L223.64-1.7Q224.44-1.8 225.09-2.8 225.74-3.8 225.74-5.65L225.74-5.65ZM229.94-28.2L229.94-26.8Q229.94-21.65 229.99-20.43 230.04-19.2 230.34-19L230.34-19Q231.09-18.55 232.49-18.55L232.49-18.55 234.44-18.55Q238.69-18.55 240.51-20.5 242.34-22.45 242.34-25.53 242.34-28.6 239.91-31.15 237.49-33.7 232.59-33.7L232.59-33.7Q230.74-33.7 230.34-32.73 229.94-31.75 229.94-28.2L229.94-28.2ZM261.48-21.55L261.48-21.55 261.43-30.05Q261.43-31.4 260.58-32.73 259.73-34.05 257.78-34.05L257.78-34.05Q256.78-34.05 256.78-34.7L256.78-34.7Q256.78-35.5 257.93-35.5L257.93-35.5 259.78-35.55 262.78-35.4 271.03-35.55Q275.73-35.55 279.13-33.18 282.53-30.8 282.53-26.35L282.53-26.35Q282.53-23.9 281.63-21.98 280.73-20.05 279.46-18.95 278.18-17.85 276.58-17.1L276.58-17.1Q274.03-15.95 272.03-15.95 270.03-15.95 268.38-16.32 266.73-16.7 266.73-17.1L266.73-17.1Q266.73-17.85 267.38-17.85L267.38-17.85Q267.63-17.85 268.41-17.65 269.18-17.45 270.13-17.45 271.08-17.45 272.38-17.78 273.68-18.1 275.08-18.82 276.48-19.55 277.38-21.03 278.28-22.5 278.28-24.45L278.28-24.45Q278.28-27.8 275.58-30.68 272.88-33.55 268.13-33.55L268.13-33.55Q266.58-33.55 266.03-32.63 265.48-31.7 265.48-28.45L265.48-28.45 265.38-7.8Q265.38-2 268.78-1.6L268.78-1.6Q269.63-1.5 270.18-1.5L270.18-1.5Q271.58-1.6 271.58-0.5L271.58-0.5Q271.58 0.35 270.43 0.35L270.43 0.35 263.28 0.1 258.63 0.3Q257.08 0.3 257.08-0.25L257.08-0.25Q257.08-1.1 257.63-1.3L257.63-1.3Q257.88-1.4 257.98-1.45 258.08-1.5 258.46-1.58 258.83-1.65 258.96-1.7 259.08-1.75 259.28-1.78 259.48-1.8 259.56-1.83 259.63-1.85 259.81-1.98 259.98-2.1 260.08-2.33 260.18-2.55 260.36-2.93 260.53-3.3 260.81-4.08 261.08-4.85 261.28-11.4 261.48-17.95 261.48-21.55Z" opacity="1" transform="matrix(1,0,0,1,0,0)" fill="#ffffff" class="wordmark-text-0" data-fill-palette-color="primary" id="text-0"></path></svg></g></svg></g><g transform="matrix(1,0,0,1,0,64.59531663343633)"><svg viewBox="0 0 395.52 32.29567249866808" height="32.29567249866808" width="395.52"><g transform="matrix(1,0,0,1,0,0)"><svg width="395.52" viewBox="2.15 -35.35 551.11 45" height="32.29567249866808" data-palette-color="#f8fafc"><path d="M24.8-25.35L24.8-2.15Q24.8 3.7 21.48 6.68 18.15 9.65 12.95 9.65L12.95 9.65Q8.05 9.65 4.7 8L4.7 8 4.7 3.05Q7.9 5.15 12.45 5.15L12.45 5.15Q19.9 5.15 19.9-2.2L19.9-2.2 19.9-4.8Q17.45-0.7 12.55-0.7L12.55-0.7Q8.25-0.7 5.2-3.88 2.15-7.05 2.15-12.85L2.15-12.85Q2.15-18.45 5-22.08 7.85-25.7 12.55-25.7L12.55-25.7Q17.6-25.7 19.9-21.4L19.9-21.4 19.9-25.35 24.8-25.35ZM7.3-12.95L7.3-12.95Q7.3-9 9.13-6.95 10.95-4.9 13.45-4.9L13.45-4.9Q16.05-4.9 17.98-6.93 19.9-8.95 19.9-12.6L19.9-12.6Q19.9-17.1 18.07-19.25 16.25-21.4 13.65-21.4L13.65-21.4Q10.7-21.4 9-19.07 7.3-16.75 7.3-12.95ZM49.07-35.35L49.07 0 44.12 0 44.12-35.35 49.07-35.35ZM88.24-22.03Q91.39-18.35 91.39-12.65 91.39-6.95 88.16-3.25 84.94 0.45 79.29 0.45L79.29 0.45Q73.69 0.45 70.49-3.2 67.29-6.85 67.29-12.45L67.29-12.45Q67.29-18.15 70.59-21.93 73.89-25.7 79.29-25.7L79.29-25.7Q85.09-25.7 88.24-22.03ZM72.39-12.6L72.39-12.6Q72.39-8.85 74.24-6.28 76.09-3.7 79.29-3.7L79.29-3.7Q82.69-3.7 84.46-6.2 86.24-8.7 86.24-12.55L86.24-12.55Q86.24-16.5 84.54-19.03 82.84-21.55 79.24-21.55L79.24-21.55Q75.99-21.55 74.19-18.98 72.39-16.4 72.39-12.6ZM114.45-3.85L114.45 0 109.5 0 109.5-35.35 114.45-35.35 114.45-21.5Q117.15-25.7 122.1-25.7L122.1-25.7Q126.9-25.7 129.95-22.1 133-18.5 133-12.55L133-12.55Q133-7.2 130.1-3.43 127.2 0.35 122.15 0.35 117.1 0.35 114.45-3.85L114.45-3.85ZM114.45-12.85L114.45-12.85Q114.45-8.35 116.45-6.15 118.45-3.95 121.35-3.95L121.35-3.95Q124.15-3.95 126.05-6.33 127.95-8.7 127.95-12.45L127.95-12.45Q127.95-16.75 126.05-19.07 124.15-21.4 121.2-21.4L121.2-21.4Q118.6-21.4 116.53-19.3 114.45-17.2 114.45-12.85ZM159.22-3.65L159.22-3.65Q161.62-3.65 163-4.98 164.37-6.3 164.37-8.45L164.37-8.45 164.37-11.3 160.57-11.3Q157.77-11.3 156.35-10.2 154.92-9.1 154.92-7.4L154.92-7.4Q154.92-5.65 156.02-4.65 157.12-3.65 159.22-3.65ZM164.52 0L164.52-3Q162.57 0.2 157.67 0.2L157.67 0.2Q154.07 0.2 151.9-1.88 149.72-3.95 149.72-7.15L149.72-7.15Q149.72-10.8 152.47-12.83 155.22-14.85 160.17-14.85L160.17-14.85 164.37-14.85 164.37-16.3Q164.37-18.9 163.12-20.23 161.87-21.55 158.97-21.55L158.97-21.55Q154.92-21.55 151.62-19.3L151.62-19.3 151.62-24.05Q154.57-25.75 159.42-25.75L159.42-25.75Q169.37-25.75 169.37-16.1L169.37-16.1 169.37 0 164.52 0ZM193.64-35.35L193.64 0 188.69 0 188.69-35.35 193.64-35.35ZM218.41-35.35L218.41 0 213.46 0 213.46-35.35 218.41-35.35ZM259.13-25.35L249.98-0.7Q246.33 9.05 238.83 9.05L238.83 9.05Q237.48 9.05 236.53 8.8L236.53 8.8 236.53 4.6Q237.33 4.8 238.23 4.8L238.23 4.8Q243.08 4.8 245.03-0.55L245.03-0.55 234.93-25.35 240.38-25.35 243.53-17.1 247.48-6.4Q247.93-7.9 251.08-17.1L251.08-17.1 253.93-25.35 259.13-25.35ZM321.66-25.35L312.51-0.7Q308.86 9.05 301.36 9.05L301.36 9.05Q300.01 9.05 299.06 8.8L299.06 8.8 299.06 4.6Q299.86 4.8 300.76 4.8L300.76 4.8Q305.61 4.8 307.56-0.55L307.56-0.55 297.46-25.35 302.91-25.35 306.06-17.1 310.01-6.4Q310.46-7.9 313.61-17.1L313.61-17.1 316.46-25.35 321.66-25.35ZM357.83-22.03Q360.98-18.35 360.98-12.65 360.98-6.95 357.76-3.25 354.53 0.45 348.88 0.45L348.88 0.45Q343.28 0.45 340.08-3.2 336.88-6.85 336.88-12.45L336.88-12.45Q336.88-18.15 340.18-21.93 343.48-25.7 348.88-25.7L348.88-25.7Q354.68-25.7 357.83-22.03ZM341.98-12.6L341.98-12.6Q341.98-8.85 343.83-6.28 345.68-3.7 348.88-3.7L348.88-3.7Q352.28-3.7 354.06-6.2 355.83-8.7 355.83-12.55L355.83-12.55Q355.83-16.5 354.13-19.03 352.43-21.55 348.83-21.55L348.83-21.55Q345.58-21.55 343.78-18.98 341.98-16.4 341.98-12.6ZM399.65-25.35L399.65 0 394.75 0 394.75-4.35Q392.75 0.3 386.85 0.3L386.85 0.3Q383.1 0.3 380.9-1.93 378.7-4.15 378.7-8.05L378.7-8.05 378.7-25.35 383.65-25.35 383.65-9.25Q383.65-6.65 384.92-5.28 386.2-3.9 388.45-3.9L388.45-3.9Q391.3-3.9 393.02-5.9 394.75-7.9 394.75-11.55L394.75-11.55 394.75-25.35 399.65-25.35ZM423.97-13.5L423.97 0 419.07 0 419.07-25.35 423.97-25.35 423.97-20.9Q425.82-25.6 430.62-25.6L430.62-25.6Q431.32-25.6 432.17-25.45L432.17-25.45 432.17-20.65Q431.12-21.1 429.82-21.1L429.82-21.1Q427.27-21.1 425.62-18.85 423.97-16.6 423.97-13.5L423.97-13.5ZM464.39-7L464.39-7Q464.39-3.6 461.99-1.68 459.59 0.25 455.49 0.25L455.49 0.25Q450.99 0.25 447.99-1.25L447.99-1.25 447.99-5.9Q451.49-3.75 455.24-3.75L455.24-3.75Q457.19-3.75 458.26-4.55 459.34-5.35 459.34-6.65L459.34-6.65Q459.34-7.75 458.49-8.63 457.64-9.5 456.76-9.93 455.89-10.35 453.79-11.25L453.79-11.25Q447.84-13.7 447.84-18.45L447.84-18.45Q447.84-21.8 450.34-23.7 452.84-25.6 456.59-25.6L456.59-25.6Q460.69-25.6 462.99-24.5L462.99-24.5 462.99-20.05Q460.54-21.5 456.69-21.5L456.69-21.5Q454.94-21.5 453.91-20.7 452.89-19.9 452.89-18.6L452.89-18.6Q452.89-18.25 452.96-17.93 453.04-17.6 453.24-17.28 453.44-16.95 453.61-16.73 453.79-16.5 454.19-16.25 454.59-16 454.81-15.83 455.04-15.65 455.56-15.4 456.09-15.15 456.34-15.03 456.59-14.9 457.21-14.63 457.84-14.35 458.09-14.25L458.09-14.25Q461.04-12.95 462.71-11.33 464.39-9.7 464.39-7ZM485.78-5.38Q486.75-4.4 486.75-3 486.75-1.6 485.78-0.6 484.8 0.4 483.4 0.4L483.4 0.4Q481.95 0.4 480.98-0.6 480-1.6 480-3 480-4.4 480.98-5.38 481.95-6.35 483.4-6.35L483.4-6.35Q484.8-6.35 485.78-5.38ZM507.95-5.38Q508.92-4.4 508.92-3 508.92-1.6 507.95-0.6 506.97 0.4 505.57 0.4L505.57 0.4Q504.12 0.4 503.15-0.6 502.17-1.6 502.17-3 502.17-4.4 503.15-5.38 504.12-6.35 505.57-6.35L505.57-6.35Q506.97-6.35 507.95-5.38ZM530.11-5.38Q531.09-4.4 531.09-3 531.09-1.6 530.11-0.6 529.14 0.4 527.74 0.4L527.74 0.4Q526.29 0.4 525.31-0.6 524.34-1.6 524.34-3 524.34-4.4 525.31-5.38 526.29-6.35 527.74-6.35L527.74-6.35Q529.14-6.35 530.11-5.38ZM552.28-5.38Q553.26-4.4 553.26-3 553.26-1.6 552.28-0.6 551.31 0.4 549.91 0.4L549.91 0.4Q548.46 0.4 547.48-0.6 546.51-1.6 546.51-3 546.51-4.4 547.48-5.38 548.46-6.35 549.91-6.35L549.91-6.35Q551.31-6.35 552.28-5.38Z" opacity="1" transform="matrix(1,0,0,1,0,0)" fill="#ffffff" class="slogan-text-1" data-fill-palette-color="secondary" id="text-1"></path></svg></g></svg></g></svg></g></svg></g><g transform="matrix(1,0,0,1,24.268774789385276,0)"><svg viewBox="0 0 346.98245042122943 346.98245042122943" height="346.98245042122943" width="346.98245042122943"><g><svg></svg></g><g id="icon-0"><svg viewBox="0 0 346.98245042122943 346.98245042122943" height="346.98245042122943" width="346.98245042122943"><g><path d="M0 173.491c0-95.817 77.675-173.491 173.491-173.491 95.817 0 173.491 77.675 173.491 173.491 0 95.817-77.675 173.491-173.491 173.491-95.817 0-173.491-77.675-173.491-173.491zM173.491 342.27c93.214 0 168.779-75.565 168.779-168.779 0-93.214-75.565-168.779-168.779-168.778-93.214 0-168.779 75.565-168.778 168.778 0 93.214 75.565 168.779 168.778 168.779z" data-fill-palette-color="accent" fill="#ffffff" stroke="transparent"></path><ellipse rx="171.75631295850857" ry="171.75631295850857" cx="173.49122521061472" cy="173.49122521061472" fill="#ffffff" stroke="transparent" stroke-width="0" fill-opacity="1" data-fill-palette-color="accent"></ellipse></g><g transform="matrix(1,0,0,1,67.5991804974114,121.17319563498614)"><svg viewBox="0 0 211.78408942640664 104.63605915125713" height="104.63605915125713" width="211.78408942640664"><g><svg xmlns="http://www.w3.org/2000/svg" xmlns:xlink="http://www.w3.org/1999/xlink" version="1.1" x="0" y="0" viewBox="0 0 453.756 224.187" enable-background="new 0 0 453.756 224.188" xml:space="preserve" width="211.78408942640664" height="104.63605915125713" class="icon-z$-0" data-fill-palette-color="quaternary" id="z$-0"><path d="M428.26 180.379l25.496-75.182H350.362c-2.143 0-6.061 2.795-11.781 8.385-5.722 5.617-9.613 8.386-11.729 8.386h-39.002c-2.534 0-6.087 1.959-10.736 5.878-4.676 3.944-7.993 5.852-9.979 5.852h-21.917V62.173l-18.521 71.525h-22.037v-17.875h-24.667v-75h-32.279V0h-17.75v40.822h-22.304v38.333h-51v54.542H0v43.442c0 4.911 4.963 11.99 14.929 47.048h430.259l-12.121-35.894L428.26 180.379z" fill="#000000" data-fill-palette-color="quaternary"></path></svg></g></svg></g></svg></g></svg></g><g></g></svg></g><defs></defs></svg><rect width="208.67164754210285" height="247.2" fill="none" stroke="none" visibility="hidden"></rect></g></svg></g></svg>